<svg width="246" height="240" viewBox="0 0 246 240" fill="none" xmlns="http://www.w3.org/2000/svg">
<path fill-rule="evenodd" clip-rule="evenodd" d="M170.813 9.71429C177.103 12.3493 183.123 15.4872 188.823 19.0748C141.855 22.3287 94.8811 25.5742 47.9074 28.8209C46.2495 28.9353 44.5917 29.0502 42.9338 29.1646C48.0875 24.8181 53.6095 20.8845 59.4489 17.4157C62.362 17.2143 65.2769 17.0129 68.19 16.8114C102.394 14.447 136.601 12.0821 170.813 9.71429Z" fill="url(#paint0_linear_1028_15842)"/>
<path fill-rule="evenodd" clip-rule="evenodd" d="M201.295 28.4101C205.18 31.5943 208.862 35.0095 212.321 38.635C208.066 38.159 203.959 36.9475 199.848 35.7349C196.523 34.7539 193.196 33.7723 189.784 33.178C177.855 31.111 167.918 34.7343 157.786 38.4291C151.563 40.6981 145.266 42.9944 138.388 44.0156C118.848 46.9609 98.6913 47.8733 78.669 48.7801C68.8406 49.2248 59.0459 49.6685 49.3716 50.3499C40.262 50.9765 31.1546 51.6043 22.0472 52.2338C24.8269 48.3164 27.8367 44.5692 31.056 41.01C36.9044 40.6065 42.7527 40.2036 48.6022 39.8013C78.2901 37.7678 107.903 35.7254 137.6 33.6171C144.379 33.1367 151.051 32.0273 157.71 30.9201C167.79 29.2449 177.838 27.5747 188.174 28.0976C192.566 28.3259 196.937 28.4191 201.295 28.4101Z" fill="url(#paint1_linear_1028_15842)"/>
<path fill-rule="evenodd" clip-rule="evenodd" d="M220.568 47.7694C222.563 50.3313 224.456 52.9742 226.242 55.6918C223.705 54.7912 221.185 53.5719 218.651 51.9435C215.353 49.8168 212.344 47.2331 209.34 44.6528C207.763 43.2984 206.187 41.9452 204.571 40.6595C204.739 40.7582 204.906 40.8564 205.074 40.9552C208.934 43.2275 212.785 45.4948 217.041 46.8631C218.199 47.2348 219.376 47.5328 220.568 47.7694ZM9.86328 74.2389C11.4781 70.4795 13.2809 66.8172 15.2595 63.2635C26.9664 62.4537 38.6732 61.6457 50.3835 60.84C58.1982 60.3149 66.0157 59.7669 73.8198 59.22C80.1363 58.7777 86.4424 58.3355 92.7328 57.9069C96.421 57.6537 100.239 57.528 104.111 57.4012C116.232 57.0021 128.886 56.5864 139.769 52.1851C144.982 50.064 149.912 47.1131 154.814 44.179C161.453 40.2052 168.043 36.2616 175.211 34.4524C167.165 37.4195 159.639 43.4335 152.551 49.0986C148.693 52.1818 144.963 55.1617 141.351 57.4909C127.706 66.3109 113.646 67.1886 98.1663 68.156C96.6264 68.252 95.0715 68.3492 93.5021 68.4555C79.3635 69.4052 65.2156 70.4303 51.153 71.3892C37.3871 72.336 23.6247 73.2863 9.86328 74.2389ZM175.211 34.4524C181.373 32.1801 187.842 31.694 194.652 34.5222C198.291 36.0205 201.504 38.2186 204.571 40.6595C200.628 38.3397 196.658 36.0551 192.222 34.7604C186.069 32.9452 180.484 33.1215 175.211 34.4524Z" fill="url(#paint2_linear_1028_15842)"/>
<path fill-rule="evenodd" clip-rule="evenodd" d="M231.093 65.212C232.935 68.6389 234.616 72.1634 236.125 75.7754C227.232 71.6349 221.269 64.5286 215.035 57.0975C210.104 51.2203 205.003 45.1405 198.147 40.1645C183.032 29.2086 166.85 47.7878 154.393 62.0886C150.583 66.4646 147.121 70.44 144.145 73.0463C136.48 79.8206 128.118 85.9766 117.977 88.4057C110.314 90.22 102.265 89.5451 94.5337 90.0543C80.413 90.8537 66.246 92.0291 52.1842 92.988C35.5593 94.1314 18.9389 95.28 2.3208 96.4314C3.11403 92.7669 4.0761 89.1634 5.19794 85.6297C20.6013 84.5634 36.0057 83.4989 51.4136 82.4389C57.5441 82.0091 63.8811 81.816 70.2945 81.62C95.9284 80.836 122.795 80.0143 142.653 63.9354C145.747 61.4337 149.136 58.0137 152.765 54.3493C165.208 41.789 180.498 26.3548 196.603 35.1684C202.512 38.3743 207.038 43.6288 211.53 48.8437C214.206 51.9519 216.87 55.0457 219.809 57.6834C223.457 60.9611 227.167 63.4411 231.093 65.212Z" fill="url(#paint3_linear_1028_15842)"/>
<path fill-rule="evenodd" clip-rule="evenodd" d="M240.844 87.9217C241.996 91.8589 242.951 95.8783 243.696 99.9686C235.7 99.1469 228.788 96.2589 222.017 90.5143C219.247 88.1634 216.698 85.3737 214.133 82.5663C209.504 77.4994 204.821 72.3743 198.682 69.6629C183.752 63.1006 169.949 78.3177 158.402 91.048C154.164 95.7211 150.229 100.059 146.654 102.862C139.092 108.81 130.661 113.659 120.718 113.899C116.066 113.998 111.365 113.447 106.671 112.896C103.292 112.499 99.9149 112.103 96.562 111.95C82.3166 111.285 68.026 112.826 53.8873 113.777C35.9207 115.012 17.9598 116.254 0 117.498C0.118984 113.903 0.397747 110.348 0.828353 106.839C18.2544 105.631 35.6828 104.426 53.1167 103.227C57.4421 102.937 61.7663 102.589 66.0928 102.241C75.9107 101.452 85.7362 100.662 95.5907 100.538C98.3791 100.501 101.193 100.647 104.011 100.793C109.19 101.062 114.382 101.331 119.457 100.467C129.676 98.6572 138.095 92.6612 145.664 86.0274C148.687 83.3892 152.253 79.1766 156.202 74.512C168.395 60.112 184.236 41.403 198.958 51.3806C204.673 55.2227 209.029 60.7777 213.364 66.3063C216.074 69.7623 218.775 73.2069 221.795 76.2166C227.621 82.0754 233.703 85.9029 240.844 87.9217Z" fill="url(#paint4_linear_1028_15842)"/>
<path fill-rule="evenodd" clip-rule="evenodd" d="M245.522 122.688C245.522 122.517 245.523 122.346 245.523 122.175C245.523 118.68 245.372 115.219 245.078 111.798C236.963 112.134 229.389 111.596 221.734 107.332C218.567 105.57 215.667 103.301 212.767 101.031C208.112 97.3874 203.455 93.7429 197.682 92.1937C183.632 88.4011 172.265 99.416 161.646 109.706C156.694 114.505 151.904 119.146 147.08 122.054C134.78 129.425 123.379 127.286 111.106 124.982C106.586 124.134 101.947 123.264 97.0998 122.838C87.0353 121.992 76.8976 122.982 66.8058 123.968C62.6784 124.371 58.5584 124.773 54.4539 125.049C36.3083 126.301 18.1558 127.558 0 128.817C0.261765 133.587 0.804559 138.283 1.61025 142.89C4.7163 142.958 7.82686 142.947 10.9454 142.8C19.0941 142.427 27.0422 140.752 34.9961 139.076C41.7169 137.659 48.4435 136.241 55.2992 135.607C60.4597 135.147 65.5567 134.197 70.6461 133.25C79.4644 131.607 88.2612 129.969 97.3313 130.879C103.246 131.488 109.4 133.487 115.613 135.505C126.429 139.019 137.428 142.592 147.67 138.991C154.619 136.535 160.48 131.669 166.316 126.823C175.317 119.35 184.255 111.927 197.03 113.482C202.099 114.099 206.585 116.243 211.079 118.39C214.564 120.055 218.055 121.723 221.826 122.682C229.086 124.581 237.467 123.616 245.384 122.704C245.43 122.698 245.476 122.694 245.522 122.688Z" fill="url(#paint5_linear_1028_15842)"/>
<path fill-rule="evenodd" clip-rule="evenodd" d="M27.984 197.678C24.1051 193.064 20.5651 188.161 17.4058 183.007C26.4995 181.875 35.216 178.712 43.8859 175.566C47.9076 174.107 51.919 172.651 55.9543 171.403C59.441 170.333 62.8688 169.078 66.2867 167.828C76.1296 164.226 85.8796 160.658 96.6822 161.633C104.73 162.335 112.347 165.458 119.94 168.57C129.117 172.332 138.258 176.079 148.078 175.52C156.577 175.053 163.75 170.783 170.983 166.478C178.818 161.814 186.725 157.108 196.467 157.143C200.685 157.142 204.799 157.837 208.911 158.531C213.331 159.278 217.752 160.025 222.301 159.906C227.921 159.745 233.549 159.35 239.174 158.901C237.95 162.51 236.559 166.043 235.008 169.491C233.447 169.571 231.884 169.651 230.323 169.731C218.983 170.311 207.653 170.891 196.404 171.864C189.226 172.455 182.45 174.913 175.709 177.359C166.644 180.647 157.64 183.913 147.812 182.586C139.154 181.425 131.263 177.814 123.385 174.21C114.489 170.139 105.606 166.075 95.6483 165.551C81.3298 164.746 69.6135 172.98 58.41 180.854L56.4575 182.225C47.741 188.311 38.2778 194.418 27.984 197.678Z" fill="url(#paint6_linear_1028_15842)"/>
<path fill-rule="evenodd" clip-rule="evenodd" d="M47.0883 216.442C44.2474 214.255 41.5062 211.947 38.8727 209.527C45.4927 205.063 51.3988 199.256 56.9673 193.61C58.0653 192.5 59.17 191.359 60.2874 190.204C69.737 180.439 80.0968 169.735 94.5076 169.714C105.644 169.688 115.582 174.805 125.535 179.93C132.615 183.575 139.703 187.225 147.236 189.03C158.567 191.756 169.731 189.258 180.898 186.76C186.181 185.578 191.467 184.395 196.771 183.766C207.545 182.464 218.438 181.712 229.324 181.07C227.064 184.958 224.592 188.71 221.923 192.311C213.773 192.875 205.629 193.457 197.493 194.08C192.563 194.446 187.688 195.155 182.839 195.859C170.844 197.602 159.01 199.321 146.933 195.785C140.443 193.891 133.866 190.269 127.201 186.599C116.37 180.635 105.307 174.543 94.0109 175.53C80.1943 176.752 70.0671 189.207 61.525 199.712C60.1877 201.356 58.8904 202.952 57.6234 204.45L56.2863 206.03C53.4307 209.409 50.3801 213.016 47.0883 216.442Z" fill="url(#paint7_linear_1028_15842)"/>
<path fill-rule="evenodd" clip-rule="evenodd" d="M59.9307 224.827C57.6994 223.522 55.5146 222.149 53.3774 220.711C54.5752 219.323 55.739 217.945 56.8721 216.603L58.3624 214.841C59.5791 213.408 60.8143 211.907 62.0745 210.374C70.7854 199.781 80.7333 187.682 94.8255 185.931C106.49 184.509 117.82 190.343 128.863 196.029C135.021 199.201 141.09 202.326 147.077 204.121C159.999 207.993 173.293 206.671 186.559 205.352C190.462 204.964 194.362 204.577 198.25 204.321C202.93 204.002 207.606 203.682 212.279 203.361C208.366 207.481 204.164 211.331 199.706 214.88C199.449 214.898 199.192 214.917 198.935 214.935C195.499 215.173 192.023 215.491 188.527 215.813C174.928 217.059 161.004 218.337 147.809 214.97C141.821 213.463 135.968 211.031 130.107 208.597C119.286 204.101 108.439 199.594 96.6705 200.884C82.073 202.462 71.7601 212.88 61.9671 222.773C61.286 223.461 60.6083 224.147 59.9307 224.827Z" fill="url(#paint8_linear_1028_15842)"/>
<path fill-rule="evenodd" clip-rule="evenodd" d="M88.0662 237.161C81.6876 235.309 75.5242 232.961 69.6226 230.161C78.7025 224.209 88.3731 219.01 99.3491 217.947C110.219 216.83 120.499 219.93 130.794 223.034C136.924 224.882 143.059 226.731 149.327 227.694C159.553 229.272 170.322 228.665 180.978 227.693C170.597 233.199 159.32 237.275 147.418 239.657C141.046 239.342 134.806 238.145 128.572 236.949C119.695 235.246 110.832 233.545 101.626 234.403C97.0249 234.854 92.5174 235.862 88.0662 237.161Z" fill="url(#paint9_linear_1028_15842)"/>
<path fill-rule="evenodd" clip-rule="evenodd" d="M147.72 2.55357C139.581 0.880023 131.144 0 122.501 0C107.148 0 92.4543 2.77455 78.9058 7.8432C102.979 6.09097 126.062 4.31362 147.72 2.55357Z" fill="url(#paint10_linear_1028_15842)"/>
<defs>
<linearGradient id="paint0_linear_1028_15842" x1="52.8384" y1="-18.8859" x2="42.5032" y2="66.0143" gradientUnits="userSpaceOnUse">
<stop offset="0.0676537" stop-color="#2314A8"/>
<stop offset="0.340521" stop-color="#E7334B"/>
<stop offset="0.620297" stop-color="#EB9938"/>
<stop offset="1" stop-color="#6CDBF0"/>
</linearGradient>
<linearGradient id="paint1_linear_1028_15842" x1="54.3117" y1="2.56833" x2="43.9674" y2="87.5441" gradientUnits="userSpaceOnUse">
<stop offset="0.0676537" stop-color="#2314A8"/>
<stop offset="0.340521" stop-color="#E7334B"/>
<stop offset="0.620297" stop-color="#EB9938"/>
<stop offset="1" stop-color="#6CDBF0"/>
</linearGradient>
<linearGradient id="paint2_linear_1028_15842" x1="56.9466" y1="16.794" x2="45.7724" y2="108.587" gradientUnits="userSpaceOnUse">
<stop offset="0.0676537" stop-color="#2314A8"/>
<stop offset="0.340521" stop-color="#E7334B"/>
<stop offset="0.620297" stop-color="#EB9938"/>
<stop offset="1" stop-color="#6CDBF0"/>
</linearGradient>
<linearGradient id="paint3_linear_1028_15842" x1="60.61" y1="17.065" x2="46.8385" y2="130.19" gradientUnits="userSpaceOnUse">
<stop offset="0.0676537" stop-color="#2314A8"/>
<stop offset="0.340521" stop-color="#E7334B"/>
<stop offset="0.620297" stop-color="#EB9938"/>
<stop offset="1" stop-color="#6CDBF0"/>
</linearGradient>
<linearGradient id="paint4_linear_1028_15842" x1="62.9632" y1="32.971" x2="48.5967" y2="150.986" gradientUnits="userSpaceOnUse">
<stop offset="0.0676537" stop-color="#2314A8"/>
<stop offset="0.340521" stop-color="#E7334B"/>
<stop offset="0.620297" stop-color="#EB9938"/>
<stop offset="1" stop-color="#6CDBF0"/>
</linearGradient>
<linearGradient id="paint5_linear_1028_15842" x1="61.7553" y1="75.416" x2="49.9002" y2="172.803" gradientUnits="userSpaceOnUse">
<stop offset="0.0676537" stop-color="#2314A8"/>
<stop offset="0.340521" stop-color="#E7334B"/>
<stop offset="0.620297" stop-color="#EB9938"/>
<stop offset="1" stop-color="#6CDBF0"/>
</linearGradient>
<linearGradient id="paint6_linear_1028_15842" x1="61.6927" y1="134.25" x2="51.3578" y2="219.15" gradientUnits="userSpaceOnUse">
<stop offset="0.0676537" stop-color="#2314A8"/>
<stop offset="0.340521" stop-color="#E7334B"/>
<stop offset="0.620297" stop-color="#EB9938"/>
<stop offset="1" stop-color="#6CDBF0"/>
</linearGradient>
<linearGradient id="paint7_linear_1028_15842" x1="63.182" y1="156.057" x2="52.8562" y2="240.882" gradientUnits="userSpaceOnUse">
<stop offset="0.0676537" stop-color="#2314A8"/>
<stop offset="0.340521" stop-color="#E7334B"/>
<stop offset="0.620297" stop-color="#EB9938"/>
<stop offset="1" stop-color="#6CDBF0"/>
</linearGradient>
<linearGradient id="paint8_linear_1028_15842" x1="64.6807" y1="176.767" x2="54.3455" y2="261.667" gradientUnits="userSpaceOnUse">
<stop offset="0.0676537" stop-color="#2314A8"/>
<stop offset="0.340521" stop-color="#E7334B"/>
<stop offset="0.620297" stop-color="#EB9938"/>
<stop offset="1" stop-color="#6CDBF0"/>
</linearGradient>
<linearGradient id="paint9_linear_1028_15842" x1="66.4425" y1="198.373" x2="56.1071" y2="283.274" gradientUnits="userSpaceOnUse">
<stop offset="0.0676537" stop-color="#2314A8"/>
<stop offset="0.340521" stop-color="#E7334B"/>
<stop offset="0.620297" stop-color="#EB9938"/>
<stop offset="1" stop-color="#6CDBF0"/>
</linearGradient>
<linearGradient id="paint10_linear_1028_15842" x1="135.097" y1="-32.2456" x2="46.8498" y2="11.4357" gradientUnits="userSpaceOnUse">
<stop offset="0.0676537" stop-color="#2314A8"/>
<stop offset="0.340521" stop-color="#E7334B"/>
<stop offset="0.620297" stop-color="#EB9938"/>
<stop offset="1" stop-color="#6CDBF0"/>
</linearGradient>
</defs>
</svg>
